<?xml version="1.0" standalone="no"?>
<!DOCTYPE svg PUBLIC "-//W3C//DTD SVG 20010904//EN"
 "http://www.w3.org/TR/2001/REC-SVG-20010904/DTD/svg10.dtd">
<svg version="1.0" xmlns="http://www.w3.org/2000/svg"
 width="16.000000pt" height="16.000000pt" viewBox="0 0 16.000000 16.000000"
 preserveAspectRatio="xMidYMid meet">
<metadata>
Created by potrace 1.11, written by Peter Selinger 2001-2013
</metadata>
<g transform="translate(0.000000,16.000000) scale(0.002286,-0.002286)"
fill="#000000" stroke="none">
<path d="M3279 6996 c-2 -2 -42 -6 -89 -10 -47 -3 -132 -12 -190 -21 -896
-129 -1717 -611 -2274 -1335 -238 -309 -425 -659 -550 -1031 -31 -93 -78 -260
-90 -323 -3 -11 -11 -52 -20 -91 -19 -90 -43 -257 -53 -365 -10 -106 -10 -506
-1 -620 46 -560 244 -1130 558 -1606 59 -89 204 -291 219 -304 3 -3 35 -39 71
-80 141 -164 360 -368 535 -499 39 -29 77 -58 85 -64 8 -7 53 -37 100 -68 301
-197 617 -343 946 -439 162 -47 367 -91 499 -106 22 -2 49 -6 60 -9 121 -26
702 -26 836 0 13 3 44 8 69 11 39 5 179 30 275 49 17 3 73 17 125 31 679 182
1277 555 1746 1089 249 283 479 660 619 1015 44 110 105 290 100 290 -2 0 5
26 16 57 11 32 21 66 24 78 10 51 15 72 22 100 4 17 7 32 8 35 1 3 5 25 9 50
5 25 10 54 12 65 11 52 36 238 42 310 13 167 5 623 -13 710 -2 11 -7 41 -10
67 -5 44 -38 228 -49 273 -2 11 -9 41 -15 67 -86 375 -303 857 -525 1166 -107
148 -158 213 -261 332 -95 109 -335 336 -445 420 -25 19 -47 37 -50 40 -10 12
-180 129 -273 189 -336 214 -774 388 -1172 465 -122 24 -134 26 -220 36 -44 6
-93 13 -110 16 -37 6 -559 16 -566 10z"/>
</g>
</svg>
