<?xml version="1.0" standalone="no"?>
<!DOCTYPE svg PUBLIC "-//W3C//DTD SVG 20010904//EN"
 "http://www.w3.org/TR/2001/REC-SVG-20010904/DTD/svg10.dtd">
<svg version="1.0" xmlns="http://www.w3.org/2000/svg"
 width="16.000000pt" height="16.000000pt" viewBox="0 0 16.000000 16.000000"
 preserveAspectRatio="xMidYMid meet">
<metadata>
Created by potrace 1.11, written by Peter Selinger 2001-2013
</metadata>
<g transform="translate(0.000000,16.000000) scale(0.002286,-0.002286)"
fill="#000000" stroke="none">
<path d="M3377 6414 c-1 -1 -45 -4 -97 -8 -90 -5 -215 -20 -270 -31 -14 -2
-41 -7 -60 -10 -105 -17 -365 -93 -501 -146 -952 -371 -1656 -1232 -1823
-2229 -24 -148 -26 -158 -33 -270 -19 -284 2 -597 54 -820 8 -36 16 -72 18
-80 16 -76 77 -275 108 -350 6 -14 11 -27 12 -30 1 -3 7 -18 13 -33 7 -16 12
-30 12 -33 0 -12 126 -263 167 -332 386 -654 978 -1119 1708 -1341 100 -31
296 -74 390 -87 27 -3 61 -8 75 -10 169 -23 591 -22 705 1 11 3 40 7 65 10
117 12 366 72 510 122 287 99 532 227 775 403 102 74 110 80 214 171 369 323
647 727 814 1179 42 113 100 307 112 370 3 14 7 36 10 50 20 93 39 221 51 345
9 86 9 385 1 480 -42 497 -211 976 -486 1384 -419 620 -1035 1046 -1766 1223
-44 10 -96 21 -115 24 -19 3 -57 9 -85 14 -125 22 -241 31 -428 34 -81 1 -148
2 -150 0z m-640 -785 c54 -23 116 -49 138 -59 22 -10 135 -57 250 -105 222
-92 243 -100 317 -134 26 -11 50 -21 53 -21 7 0 317 128 637 264 l228 96 67
-31 c294 -131 555 -315 762 -535 l90 -97 -4 -61 c-2 -34 -7 -101 -10 -151 -8
-138 -15 -262 -20 -345 -3 -41 -7 -115 -10 -165 -3 -49 -7 -121 -10 -160 -5
-63 -3 -73 17 -95 13 -14 70 -79 127 -145 57 -66 109 -124 115 -130 6 -5 24
-26 40 -45 23 -29 130 -149 171 -194 6 -6 38 -43 72 -82 l63 -70 -5 -55 c-5
-60 -15 -143 -21 -174 -3 -11 -7 -36 -10 -55 -12 -75 -57 -248 -91 -344 -35
-101 -136 -328 -159 -356 -6 -8 -21 -33 -32 -56 -25 -50 -39 -61 -82 -69 -18
-3 -36 -8 -40 -10 -3 -2 -17 -6 -31 -9 -35 -6 -161 -37 -424 -101 -126 -31
-237 -58 -245 -60 -94 -21 -115 -27 -130 -35 -9 -5 -54 -73 -100 -152 -46 -79
-118 -201 -160 -273 -42 -71 -109 -185 -149 -252 -58 -99 -77 -124 -99 -129
-15 -3 -43 -10 -62 -14 -35 -9 -92 -19 -140 -25 -167 -23 -192 -25 -350 -24
-171 0 -244 5 -367 25 -18 3 -35 5 -38 5 -2 1 -42 9 -87 19 -97 22 -80 4 -208
225 -23 39 -50 85 -61 104 -59 99 -194 331 -211 361 -71 127 -81 136 -178 155
-8 2 -71 18 -140 35 -69 18 -135 34 -146 36 -12 2 -97 22 -190 45 -93 23 -176
42 -184 44 -66 14 -157 40 -167 47 -30 24 -155 272 -206 408 -34 92 -82 249
-91 300 -2 14 -7 36 -10 50 -15 65 -33 180 -40 269 l-6 63 58 66 c31 36 64 73
72 82 39 42 155 173 174 197 11 15 32 39 46 54 14 14 50 55 81 90 31 35 84 95
118 134 l61 69 -5 76 c-5 76 -11 176 -20 330 -20 327 -26 433 -31 494 l-4 58
133 132 c135 134 299 265 442 351 60 37 328 173 342 175 1 0 46 -18 100 -41z"/>
<path d="M3463 4582 c-21 -14 -42 -30 -48 -35 -5 -4 -145 -106 -310 -225 -165
-120 -405 -293 -532 -386 -128 -93 -233 -175 -233 -182 0 -8 16 -60 36 -116
19 -57 57 -168 84 -248 27 -80 103 -302 169 -495 66 -192 127 -372 136 -400 9
-27 21 -62 27 -78 l10 -27 700 2 700 3 23 70 c13 39 86 255 163 480 77 226
169 497 206 604 36 107 66 200 66 207 0 6 -62 57 -137 111 -76 55 -337 244
-580 420 l-442 321 -38 -26z"/>
</g>
</svg>
